<svg width="24" height="24" viewBox="0 0 24 24" fill="none" xmlns="http://www.w3.org/2000/svg">
<g clip-path="url(#clip0_13_3)">
<path fill-rule="evenodd" clip-rule="evenodd" d="M6.293 6.29296C6.48053 6.10549 6.73484 6.00017 7 6.00017C7.26516 6.00017 7.51947 6.10549 7.707 6.29296L12 10.586L16.293 6.29296C16.3852 6.19745 16.4956 6.12127 16.6176 6.06886C16.7396 6.01645 16.8708 5.98886 17.0036 5.98771C17.1364 5.98655 17.2681 6.01186 17.391 6.06214C17.5138 6.11242 17.6255 6.18667 17.7194 6.28056C17.8133 6.37446 17.8875 6.48611 17.9378 6.60901C17.9881 6.7319 18.0134 6.86358 18.0123 6.99636C18.0111 7.12914 17.9835 7.26036 17.9311 7.38236C17.8787 7.50437 17.8025 7.61471 17.707 7.70696L12.707 12.707C12.5195 12.8944 12.2652 12.9997 12 12.9997C11.7348 12.9997 11.4805 12.8944 11.293 12.707L6.293 7.70696C6.10553 7.51943 6.00021 7.26512 6.00021 6.99996C6.00021 6.73479 6.10553 6.48049 6.293 6.29296ZM6.293 12.293C6.48053 12.1055 6.73484 12.0002 7 12.0002C7.26516 12.0002 7.51947 12.1055 7.707 12.293L12 16.586L16.293 12.293C16.4816 12.1108 16.7342 12.01 16.9964 12.0123C17.2586 12.0146 17.5094 12.1197 17.6948 12.3051C17.8802 12.4905 17.9854 12.7414 17.9877 13.0036C17.99 13.2658 17.8892 13.5184 17.707 13.707L12.707 18.707C12.5195 18.8944 12.2652 18.9997 12 18.9997C11.7348 18.9997 11.4805 18.8944 11.293 18.707L6.293 13.707C6.10553 13.5194 6.00021 13.2651 6.00021 13C6.00021 12.7348 6.10553 12.4805 6.293 12.293Z" fill="#E0B4FB"/>
</g>
<defs>
<clipPath id="clip0_13_3">
<rect width="24" height="24" fill="white"/>
</clipPath>
</defs>
</svg>
