<svg width="56" height="54" viewBox="0 0 56 54" fill="none" xmlns="http://www.w3.org/2000/svg">
<g clip-path="url(#clip0_39_88)">
<path fill-rule="evenodd" clip-rule="evenodd" d="M15.5883 38.5806C18.8016 41.6548 23.1679 43.374 27.7269 43.3599C32.2858 43.3458 36.6638 41.5996 39.8979 38.5055C43.1319 35.4114 44.9571 31.2228 44.9718 26.8611C44.9865 22.4995 43.1896 18.3221 39.9763 15.2479C36.7631 12.1737 32.3967 10.4545 27.8378 10.4686C23.2789 10.4826 18.9008 12.2288 15.6668 15.3229C12.4327 18.417 10.6076 22.6056 10.5929 26.9673C10.5782 31.329 12.3751 35.5064 15.5883 38.5806V38.5806ZM41.7183 13.5812C45.3906 17.0946 47.4442 21.8688 47.4274 26.8536C47.4106 31.8383 45.3247 36.6253 41.6287 40.1614C37.9326 43.6976 32.9291 45.6932 27.7189 45.7093C22.5087 45.7253 17.5186 43.7606 13.8463 40.2472C10.1741 36.7338 8.12044 31.9596 8.13726 26.9749C8.15407 21.9901 10.2399 17.2031 13.936 13.667C17.632 10.1309 22.6355 8.13527 27.8457 8.11919C33.0559 8.1031 38.046 10.0679 41.7183 13.5812V13.5812ZM19.1043 25.7649C18.7783 25.7659 18.4652 25.8907 18.2339 26.112C18.0026 26.3333 17.872 26.6329 17.871 26.9448C17.8699 27.2568 17.9984 27.5555 18.2282 27.7754C18.4581 27.9953 18.7703 28.1182 19.0964 28.1172L33.3227 28.0716L28.5008 32.6848C28.2698 32.9058 28.1395 33.205 28.1384 33.5166C28.1374 33.8281 28.2657 34.1265 28.4952 34.3461C28.7247 34.5657 29.0366 34.6885 29.3623 34.6875C29.6879 34.6865 30.0006 34.5617 30.2316 34.3407L37.1561 27.7159C37.3871 27.4949 37.5174 27.1957 37.5185 26.8842C37.5195 26.5726 37.3912 26.2742 37.1617 26.0546L30.2818 19.4724C30.0522 19.2528 29.7404 19.1301 29.4147 19.1311C29.0891 19.1321 28.7764 19.2568 28.5454 19.4778C28.3144 19.6988 28.184 19.998 28.183 20.3095C28.1819 20.6211 28.3103 20.9195 28.5398 21.1391L33.3306 25.7226L19.1043 25.7649Z" fill="#CFCFCF"/>
</g>
<defs>
<clipPath id="clip0_39_88">
<rect width="38.5736" height="38.3254" fill="white" transform="matrix(0.722567 -0.691301 0.722567 0.691301 0 27)"/>
</clipPath>
</defs>
</svg>
